<svg width="681" height="1129" viewBox="0 0 681 1129" fill="none" xmlns="http://www.w3.org/2000/svg">
<path d="M399.244 769.305C372.594 597.831 406.772 414.017 458.716 250.525C476.071 195.893 535.417 28.9936 588.283 3.23345C594.733 0.0928067 602.24 -0.642297 609.056 1.8133C620.707 6.01049 627.315 18.5072 631.899 29.2439C649.152 69.6296 654.985 118.217 662.381 161.422C693.097 340.868 689.385 423.863 621.763 593.59C612.871 615.682 598.201 651.041 591.809 672.991C570.633 745.695 569.25 771.42 510.031 824.474C580.116 877.641 609.794 929.815 612.265 1019.85C612.942 1044.58 617.01 1077.22 593.679 1093.17C574.461 1106.31 549.413 1114.29 526.163 1119.87C491.05 1128.3 445.816 1133.93 411.859 1117.73C383.907 1102.18 372.333 1082.85 333.707 1085.39C304.282 1087.32 293.701 1104.8 270.257 1117.43C247.774 1129.53 211.978 1128.94 186.908 1125.44C155.628 1121.08 98.8493 1109.17 78.0478 1082.91C64.3734 1065.65 69.3373 1003.79 72.7203 981.201C83.9312 906.339 112.9 868.733 171.171 825.088C148.396 804.089 126.322 782.797 114.276 753.633C99.6055 718.119 93.6403 679.652 79.7683 643.149C63.6514 600.738 45.901 558.439 30.9935 515.914C-8.11167 404.363 -4.6944 292.871 16.4654 177.908C24.923 131.95 32.2635 79.5389 47.5082 35.1141C52.928 19.3134 60.7875 7.399 76.438 0.516989C111.299 -0.805664 147.105 63.4826 160.115 91.4296C248.364 280.996 319.197 560.336 281.317 768.733C319.975 758.415 360.687 758.613 399.244 769.305Z" fill="black"/>
<path d="M476.166 944.138C498.943 941.645 521.637 947.573 542.132 957.072C524.904 996.912 494.13 1025.51 450.548 1031.46C427.167 1034.06 404.972 1028.73 383.973 1018.78C401.72 976.906 430.2 949.418 476.166 944.138Z" fill="white"/>
<path d="M182.261 944.085C238.576 937.118 275.331 970.733 297.384 1019.37C280.904 1026.05 273.197 1028.26 255.673 1031.25C200.815 1037.77 161.233 1005.99 140.191 957.177C154.598 949.199 166.247 946.348 182.261 944.085Z" fill="white"/>
</svg>
