<svg xmlns="http://www.w3.org/2000/svg" version="1.1" xmlns:xlink="http://www.w3.org/1999/xlink" width="337" height="337"><svg width="337" height="337" viewBox="0 0 337 337" fill="none" xmlns="http://www.w3.org/2000/svg">
<g clip-path="url(#clip0_229_8)">
<path d="M183.941 222.377C176.936 177.268 185.92 128.913 199.573 85.9043C204.135 71.5325 219.734 27.6272 233.629 20.8506C235.325 20.0244 237.298 19.831 239.09 20.477C242.152 21.5811 243.889 24.8686 245.094 27.693C249.629 38.3171 251.162 51.0987 253.106 62.4644C261.18 109.67 260.204 131.503 242.43 176.153C240.092 181.964 236.236 191.266 234.556 197.04C228.99 216.166 228.627 222.933 213.061 236.89C231.483 250.876 239.284 264.601 239.933 288.286C240.111 294.792 241.18 303.379 235.048 307.574C229.996 311.031 223.413 313.13 217.301 314.598C208.072 316.816 196.182 318.297 187.257 314.035C179.909 309.945 176.867 304.86 166.714 305.528C158.98 306.035 156.199 310.634 150.037 313.956C144.127 317.139 134.718 316.984 128.129 316.063C119.907 314.917 104.982 311.783 99.5148 304.875C95.9205 300.335 97.2252 284.062 98.1144 278.119C101.061 258.426 108.676 248.533 123.992 237.051C118.006 231.527 112.204 225.926 109.037 218.254C105.181 208.912 103.613 198.792 99.967 189.19C95.7307 178.033 91.065 166.906 87.1466 155.719C76.8679 126.374 77.7661 97.044 83.3279 66.8013C85.551 54.7114 87.4804 40.9239 91.4875 29.2373C92.9121 25.0807 94.9779 21.9464 99.0916 20.136C108.255 19.7881 117.666 36.7 121.086 44.0519C144.282 93.9201 162.901 167.405 152.944 222.226C163.105 219.512 173.806 219.564 183.941 222.377Z" fill="black"></path>
<path d="M204.16 268.369C210.147 267.714 216.112 269.273 221.499 271.772C216.97 282.252 208.881 289.775 197.426 291.341C191.28 292.025 185.446 290.623 179.927 288.005C184.592 276.989 192.078 269.758 204.16 268.369Z" fill="white"></path>
<path d="M126.907 268.355C141.709 266.523 151.37 275.366 157.167 288.16C152.835 289.917 150.809 290.499 146.203 291.285C131.784 293.001 121.38 284.64 115.849 271.799C119.636 269.701 122.698 268.951 126.907 268.355Z" fill="white"></path>
</g>
<defs>
<clipPath id="SvgjsClipPath1005">
<rect width="179" height="297" fill="white" transform="translate(79 20)"></rect>
</clipPath>
</defs>
</svg><style>@media (prefers-color-scheme: light) { :root { filter: none; } }
@media (prefers-color-scheme: dark) { :root { filter: none; } }
</style></svg>